<svg xmlns="http://www.w3.org/2000/svg" width="256" height="256" viewBox="0 0 256 256">
  <defs>
    <linearGradient id="g" x1="0" y1="0" x2="1" y2="1">
      <stop offset="0%" stop-color="#00b894"/>
      <stop offset="100%" stop-color="#0984e3"/>
    </linearGradient>
  </defs>
  <rect width="256" height="256" rx="28" fill="url(#g)"/>
  <g fill="#ffffff" opacity="0.1">
    <circle cx="64" cy="64" r="24"/>
    <circle cx="200" cy="56" r="18"/>
    <circle cx="192" cy="192" r="26"/>
    <circle cx="56" cy="200" r="16"/>
  </g>
  <g fill="#fff">
    <path d="M112 160c-10 0-18-8-18-18V94c0-6 4-10 10-10s10 4 10 10v24h4V88c0-6 4-10 10-10s10 4 10 10v30h4V96c0-6 4-10 10-10s10 4 10 10v44c0 11-9 20-20 20h-20l-10 12z"/>
  </g>
  <text x="128" y="226" font-family="Tahoma, sans-serif" font-size="28" fill="#ffffff" text-anchor="middle">1 ฝ่ามือ</text>
</svg>