<svg xmlns="http://www.w3.org/2000/svg" width="640" height="360" viewBox="0 0 640 360">
  <defs>
    <linearGradient id="bg" x1="0" y1="0" x2="1" y2="1">
      <stop offset="0%" stop-color="#90caf9"/><stop offset="100%" stop-color="#a5d6a7"/>
    </linearGradient>
  </defs>
  <rect width="640" height="360" rx="20" fill="url(#bg)"/>
  <g opacity="0.18" fill="#ffffff">
    <circle cx="80" cy="70" r="16"/><circle cx="560" cy="80" r="12"/>
    <circle cx="560" cy="300" r="18"/><circle cx="90" cy="300" r="14"/>
  </g>
  <g transform="translate(180,80)">
    <rect x="210" y="30" width="90" height="120" rx="18" fill="#ffd54f" stroke="#fbc02d" stroke-width="4"/>
    <rect x="232" y="18" width="44" height="30" rx="8" fill="#ffe082" stroke="#fbc02d" stroke-width="4"/>
    <circle cx="254" cy="18" r="8" fill="#ffcc80"/>
    <g fill="#ffe0b2" stroke="#d7b899" stroke-width="4">
      <path d="M40 200c-24 0-40-18-40-42V90c0-10 8-18 18-18s18 8 18 18v26h10V76c0-10 8-18 18-18s18 8 18 18v40h10V86c0-10 8-18 18-18s18 8 18 18v50c0 26-22 48-48 48H78L56 208z"/>
    </g>
    <circle cx="90" cy="118" r="8" fill="#81d4fa"/>
    <circle cx="110" cy="118" r="8" fill="#81d4fa"/>
    <circle cx="70" cy="118" r="8" fill="#81d4fa"/>
  </g>
</svg>